<svg width="36" height="36" viewBox="0 0 36 36" fill="none" xmlns="http://www.w3.org/2000/svg">
<path d="M2.05025 11.9498C-0.683419 9.21612 -0.683415 4.78397 2.05025 2.0503C4.78392 -0.683374 9.21608 -0.683374 11.9497 2.0503L33.0348 23.1353C35.7684 25.869 35.7684 30.3011 33.0348 33.0348C30.3011 35.7685 25.8689 35.7685 23.1353 33.0348L2.05025 11.9498Z" fill="white"/>
<path d="M23.1353 2.05025C25.8689 -0.683419 30.3011 -0.683415 33.0348 2.05025C35.7684 4.78392 35.7684 9.21608 33.0348 11.9497L11.9497 33.0348C9.21608 35.7684 4.78393 35.7684 2.05026 33.0348C-0.683414 30.3011 -0.683414 25.8689 2.05026 23.1353L23.1353 2.05025Z" fill="white"/>
</svg>
